# xmcd
#
# Track frame offsets: 
#        150
#        10747
#        26493
#        40641
#        61289
#        76642
#        92828
#        107137
#        121332
#        135287
#        148344
#        162107
#        179206
#        197481
#        208060
#
# Disc length: 2949 seconds
#
# Revision: 0
# Processed by: cddbd v1.5.2PL0 Copyright (c) Steve Scherf et al.
# Submitted via: ExactAudioCopy v0.99pb3
#
DISCID=c40b830f
DTITLE=Blackberry Winter - Still Standing [DigiCD]
DYEAR=2013
DGENRE=Appalachian Folk
TTITLE0=Winters Come and Gone [David Rawlings and Gillian Welch cover]
TTITLE1=Shenendoah
TTITLE2=Hard Times
TTITLE3=Tramps and Hawkers
TTITLE4=Silence or Tears
TTITLE5=Wings [Teresa Trull cover]
TTITLE6=Song That Bird Sings [Carla Sciaky cover]
TTITLE7=Broken Glass
TTITLE8=Smokin' too Long
TTITLE9=Bright Angel [Susan Osborn cover]
TTITLE10=I Just Passed the Bar
TTITLE11=Days of 49
TTITLE12=Gone Away
TTITLE13=Room to Be You
TTITLE14=Ozark Mountains
EXTD=
EXTT0=
EXTT1=
EXTT2=
EXTT3=
EXTT4=
EXTT5=
EXTT6=
EXTT7=
EXTT8=
EXTT9=
EXTT10=
EXTT11=
EXTT12=
EXTT13=
EXTT14=
PLAYORDER=
